<?xml version="1.0" encoding="utf-8"?>
<!-- Generator: Adobe Illustrator 24.3.0, SVG Export Plug-In . SVG Version: 6.00 Build 0)  -->
<svg version="1.1" id="Capa_1" xmlns="http://www.w3.org/2000/svg" xmlns:xlink="http://www.w3.org/1999/xlink" x="0px" y="0px"
	 viewBox="0 0 532.87 698.46" style="enable-background:new 0 0 532.87 698.46;" xml:space="preserve">
<style type="text/css">
	.st0{fill:#1F3865;}
	.st1{fill:#F5A977;}
	.st2{fill:#25468F;}
	.st3{fill:#F29053;}
	.st4{fill:#ACBFE3;}
	.st5{fill:#91AFDC;}
	.st6{fill:#F18E37;}
	.st7{fill:#ED750F;}
	.st8{fill:#FFFFFF;}
</style>
<g>
	<path class="st0" d="M373.73,444.5h-83.84c-5.81-4.08-16.75-12.99-27.15-28.18c-2-2.92-3.97-6.06-5.89-9.45
		C246.1,387.83,345.61,431.79,373.73,444.5z"/>
	<g>
		<path class="st1" d="M322.04,631.03c2.25,2.61,2.52,5.51,1.37,8.6c0,0.01-0.01,0.03-0.02,0.04c-2.11,5.71-9.01,12.06-17.01,18.4
			c-1.02,0.81-1.93,1.55-2.72,2.24c-0.21,0.18-0.42,0.36-0.61,0.54c-0.16,0.14-0.32,0.29-0.47,0.42
			c-7.47,6.79-4.69,8.37-18.11,22.16c-15.31,15.71-25.77,15.92-28.74,14.45c-2.51-1.25,2.67-9.6,8.4-18.98
			c0.28-0.45,0.55-0.91,0.83-1.37c0.76-1.25,1.52-2.51,2.28-3.77c6.72-11.3,5.05-16.63,3.6-33.53c-1.18-13.73-20.8-76.8-20.8-76.8
			l29.16-4.81c0,0,8.42,50.17,18.03,57.95c5.14,4.15,10.92,4.24,15.87,7.33c0.35,0.21,0.69,0.43,1.03,0.66
			C316.93,626.46,319.79,628.41,322.04,631.03z"/>
		<path class="st0" d="M322.04,631.03c2.25,2.61,2.52,5.51,1.37,8.6c0,0.01-0.01,0.03-0.02,0.04c-2.58,5.71-9.3,12.02-17.04,18.34
			c-1.01,0.83-1.9,1.59-2.7,2.3c-0.21,0.18-0.42,0.36-0.61,0.54c-0.16,0.14-0.32,0.29-0.47,0.42c-7.47,6.79-4.69,8.37-18.11,22.16
			c-15.31,15.71-25.77,15.92-28.74,14.45c-2.51-1.25,2.67-9.6,8.4-18.98c2.97-1.06,16.75-6.55,27.23-19.77
			c9.23-11.61,15.44-26.57,21.73-35.22c0.35,0.21,0.69,0.43,1.03,0.66C316.93,626.46,319.79,628.41,322.04,631.03z"/>
		<path class="st1" d="M87.33,611.18c-1.86,8.98-14.67,7.39-28.96,3.79c-14.29-3.6-10.92,0.58-31.28-1.82
			c-20.36-2.4-26.48-10.04-27.08-13.07c-0.54-2.69,9.54-3.57,20.34-4.74c1.36-0.14,2.72-0.3,4.09-0.46
			c12.2-1.44,21.19-9.25,32.31-15.63c10.53-6.05,26.36-30.87,26.36-30.87l27.93,2.41c0,0-14.82,22.17-20.56,31.81
			c-3.38,5.67-3.25,13.2-2.88,19.02C87.81,604.79,87.99,608.02,87.33,611.18z"/>
		<path class="st0" d="M58.38,614.97c-14.29-3.6-10.92,0.58-31.28-1.82c-20.36-2.4-26.48-10.04-27.08-13.07
			c-0.54-2.69,9.54-3.57,20.34-4.74l0.1,0.21c0,0,12.16,8.75,29.12,9.28c13.82,0.43,28.49-3.42,38.04-3.2
			c0.19,3.16,0.38,6.4-0.28,9.56C85.47,620.16,72.67,618.57,58.38,614.97z"/>
		<path class="st0" d="M290.47,585.83c0,0-1.95,1.26-4.85,2.87c-3.46,1.9-8.28,4.28-12.73,5.53c-4.76,1.33-9.62,1.67-13.11,1.71
			c-3.03,0.02-5.02-0.18-5.02-0.18l-33.46-92.03l-6.05-16.64l-6.43-17.71l-2.24-6.16l-10.9-29.97c0,0,26.63-68.28,53.79-35.73
			c3.3,3.96,6.4,9.74,9.3,16.82c1.98,4.83,3.86,10.27,5.66,16.17c1.34,4.43,2.64,9.11,3.89,13.98c3.38,13.25,6.38,27.9,9,42.6
			C286.06,536.19,290.47,585.83,290.47,585.83z"/>
		<path class="st2" d="M469.17,436.41c-1.51,3.81-4.17,6.46-7.74,8.1H337.92c-29.72-6.15-58.13-19.74-75.17-28.18
			c-1.41-0.71-2.73-1.37-3.97-1.97c-5.82-2.89-9.83-4.86-11.47-5.2c-10.33-2.15-15.63,14.67-24.38,35.36
			c-1.79,4.21-3.7,8.57-5.84,12.98c-1.53,3.14-4.4,7.21-8.27,11.91c-0.72,0.87-1.46,1.75-2.24,2.66
			C176.55,507.13,99.25,572.44,99.25,572.44s-0.91,0-2.38-0.03c-4.73-0.09-15.27-0.52-20.31-2.46c-2.9-1.12-5.06-2.36-6.58-3.42
			c-2.22-1.58-3.13-2.81-3.13-2.81s92.5-180.86,140.4-230.13v-0.01c0.7-0.72,1.38-1.4,2.06-2.05c5.23-5.11,9.87-8.48,13.73-9.7
			c16.32-5.14,121.88,0.59,121.88,0.59l3.37-5.48l5.64-0.4l0.97-0.07l4.7-0.34h0.01l6.49-0.46l9.64-0.68l26.09-1.86l4.19-0.3
			l48.23-3.43c0,0,2.2,4.96,5.17,13.19c1.16,3.21,2.44,6.91,3.75,11.01C471.77,360.54,481.81,404.47,469.17,436.41z"/>
		<path class="st0" d="M501.15,129.62c-24.1-20.58-41.3-25.67-43.69-58.24c-1.3-17.68-25.04-76.18-65.2-71.06
			c-3.36,0.43-6.74,0.73-10.12,0.59c-4.69-0.18-12.43,0.44-20.41,5.12c-19.33,11.32-54.94,115.98-30.94,152.76
			c4.3,6.6,10.53,11.02,19.14,12.31c1.01,0.57,2.04,1.15,3.1,1.74h0.01c4.32,2.43,9.06,5.09,14.08,7.94
			c28.38,16,65.53,37.15,84.56,47.85h0.01c1.15,0.65,2.23,1.26,3.25,1.83c2.21,1.23,4.08,2.27,5.53,3.07
			c2.23,1.22,3.53,1.9,3.63,1.9c0,0,4.9,1.89,11.77,3.31c9.57,1.99,22.97,3.11,32.3-3c3.69-2.41,7.15-5.4,10.23-8.86
			C537.72,205.29,542.81,165.17,501.15,129.62z"/>
		<path class="st1" d="M381.67,153.64c-0.17,0.11,18.51,6.63,31.07,1.17c11.81-5.12,20.87-24.43,20.7-24.45
			c-5.36-0.29-11.2-5.01-15.52-35.77l-2.29,0.8l-38.45,13.53c0,0,2.69,12.33,4.41,24.06C383.03,142.84,383.78,152.27,381.67,153.64z
			"/>
		<path class="st3" d="M377.18,108.93c0,0,1.64,8.64,3.91,20.98c22.06-3.81,31.35-22.63,34.54-34.52L377.18,108.93z"/>
		<path class="st1" d="M371.38,121.11c0,0,52.53-6.67,47.87-39.32c-4.66-32.65-1.02-55.5-34.75-52.62
			c-33.73,2.88-38.46,16.27-39.55,27.54C343.85,67.99,357.6,122,371.38,121.11z"/>
		<path class="st0" d="M346.98,38.85c0,0,33.39,29.19,56.22,31.68c22.83,2.5,31.54-4.78,31.54-4.78s-13.39-11.28-21.37-29.38
			c-2.35-5.34-7.37-9.02-13.18-9.56C383.89,25.28,352.96,24.42,346.98,38.85z"/>
		<path class="st0" d="M368,36.41c0,0-11.31,10.79-14.91,18.82c-3.47,7.75-4.63,26.35-1.96,33.75c0,0-17.27-34.17-7.24-50.64
			C354.53,20.87,368,36.41,368,36.41z"/>
		<path class="st4" d="M336.94,230.64c0.84,106.24-0.16,84.03,11.39,94.19c2.78,2.45,10.64,3.95,21,4.71
			c32.56,2.39,89.85-2.57,92.07-8.58c7.66-20.78,2.4-27.28,8.9-59.13c0.68-3.39,1.51-7.05,2.49-11.04
			c5.38-21.86,10.52-29.28-7.77-64.6c-16.59-31.99-33.88-57.98-35.45-57.06c-44.55,26.02-47.97,3.86-47.97,3.86
			S336.53,178.82,336.94,230.64z"/>
		<path class="st2" d="M290.47,585.83c0,0-1.95,1.26-4.85,2.87c-3.46,1.9-8.28,4.28-12.73,5.53c-4.76,1.33-9.62,1.67-13.11,1.71
			c-3.03,0.02-5.02-0.18-5.02-0.18l-33.46-92.03l9.8-16.64l25.1-42.6l8.23-13.98c1.34,4.43,2.64,9.11,3.89,13.98
			c3.38,13.25,6.38,27.9,9,42.6C286.06,536.19,290.47,585.83,290.47,585.83z"/>
		<path class="st4" d="M381.59,132.99c0,0-45.7,7.42-51.2,27.03c-5.5,19.62-37.86,134.94-37.86,134.94s23.18,4.33,33.97-6.31
			c10.8-10.64,38-99.2,38-99.2L381.59,132.99z"/>
		<path class="st5" d="M369.33,329.54c32.56,2.39,89.85-2.57,92.07-8.58c7.66-20.78,2.4-27.28,8.9-59.13l-15.4-44.35
			c0,0,2.25,49.28-12.37,62.14c-14.6,12.85-59.66,24.59-66.8,35.37C372.29,320.16,370.01,325.36,369.33,329.54z"/>
		<path class="st1" d="M406.79,309.08c0,0-32.08-7.38-37.29-4.57c-5.21,2.82-17.95,13.11-19.56,16.71
			c-1.61,3.6,11.56-2.66,15.84-3.78c2.77-0.72,10.03,1.86,13.63,3.09c15.13,5.16,24.44,2.63,24.44,2.63L406.79,309.08z"/>
		<path class="st4" d="M429.59,129.11c0,0,43.13,2.96,57.92,23.9c20.82,29.48,61.65,154.75,37.63,171.25
			c-27.05,18.58-122.56,4.05-122.56,4.05s-3.08-14.89,1.4-22.06c4.48-7.16,76.49-18.27,79.84-21.57
			c3.34-3.3-41.04-65.03-40.97-74.99C442.91,199.73,429.59,129.11,429.59,129.11z"/>
		<path class="st1" d="M367.89,313.45c0,0-6.79,8.64-9.01,9.66c-2.21,1.02-3.64,0.75-3.64,0.75l4.59-8.13L367.89,313.45z"/>
		<path class="st1" d="M369.5,304.51l-19.64,9.37c0,0,0.82,1.37,3.23,1.28c2.41-0.09,8.51-2.27,8.51-2.27L369.5,304.51z"/>
	</g>
	<g>
		<g>
			<polygon class="st6" points="363.06,332.28 208.21,331.19 162.45,215.02 317.06,216.11 			"/>
			<polygon class="st7" points="206.43,326.66 410.91,328.1 410.88,332.62 208.21,331.19 			"/>
		</g>
		<path class="st8" d="M247.71,273.54c-1.14-4.08,1.24-7.36,5.31-7.34c4.07,0.03,8.3,3.36,9.43,7.44c1.14,4.08-1.24,7.36-5.31,7.34
			C253.07,280.95,248.85,277.62,247.71,273.54z"/>
	</g>
</g>
</svg>
